<svg xmlns="http://www.w3.org/2000/svg" width="720" height="300" viewBox="0 0 720 300" font-family="system-ui, -apple-system, 'Segoe UI', sans-serif">
<rect width="720" height="300" rx="8" fill="#1a1a1a"/>
<text x="20" y="28" font-size="15" fill="#ffffff" text-anchor="start" font-weight="600">各星期几的平均日单量</text>
<text x="696" y="28" font-size="12" fill="#c3c2b7" text-anchor="end" font-weight="normal">峰谷差 4.5 倍</text>
<line x1="56" y1="189.2" x2="696" y2="189.2" stroke="#2c2c2a" stroke-width="1"/>
<text x="48" y="193.21489999508574" font-size="11" fill="#898781" text-anchor="end" font-weight="normal" font-variant-numeric="tabular-nums">10k</text>
<line x1="56" y1="112.4" x2="696" y2="112.4" stroke="#2c2c2a" stroke-width="1"/>
<text x="48" y="116.42979999017152" font-size="11" fill="#898781" text-anchor="end" font-weight="normal" font-variant-numeric="tabular-nums">20k</text>
<rect x="89.7" y="78.5" width="24" height="187.5" rx="4" fill="#3987e5"/>
<text x="101.71428571428572" y="71.5" font-size="12" fill="#ffffff" text-anchor="middle" font-weight="600" font-variant-numeric="tabular-nums">24.4k</text>
<text x="101.71428571428572" y="284" font-size="12" fill="#c3c2b7" text-anchor="middle" font-weight="normal">周一</text>
<rect x="181.1" y="118.3" width="24" height="147.7" rx="4" fill="#3987e5"/>
<text x="193.14285714285714" y="284" font-size="12" fill="#c3c2b7" text-anchor="middle" font-weight="normal">周二</text>
<rect x="272.6" y="143.5" width="24" height="122.5" rx="4" fill="#3987e5"/>
<text x="284.57142857142856" y="284" font-size="12" fill="#c3c2b7" text-anchor="middle" font-weight="normal">周三</text>
<rect x="364.0" y="150.7" width="24" height="115.3" rx="4" fill="#3987e5"/>
<text x="376.0" y="284" font-size="12" fill="#c3c2b7" text-anchor="middle" font-weight="normal">周四</text>
<rect x="455.4" y="150.6" width="24" height="115.4" rx="4" fill="#3987e5"/>
<text x="467.42857142857144" y="284" font-size="12" fill="#c3c2b7" text-anchor="middle" font-weight="normal">周五</text>
<rect x="546.9" y="224.0" width="24" height="42.0" rx="4" fill="#3987e5"/>
<text x="558.8571428571429" y="216.99394319131162" font-size="12" fill="#ffffff" text-anchor="middle" font-weight="600" font-variant-numeric="tabular-nums">5.5k</text>
<text x="558.8571428571429" y="284" font-size="12" fill="#c3c2b7" text-anchor="middle" font-weight="normal">周六</text>
<rect x="638.3" y="198.7" width="24" height="67.3" rx="4" fill="#3987e5"/>
<text x="650.2857142857143" y="284" font-size="12" fill="#c3c2b7" text-anchor="middle" font-weight="normal">周日</text>
<line x1="56" y1="266" x2="696" y2="266" stroke="#383835" stroke-width="1"/>
</svg>